<svg xmlns="http://www.w3.org/2000/svg" width="24" height="24" viewBox="0 0 24 24"><defs><style>.a{fill:#17c2c6;}.b{fill:none;}</style></defs><g transform="translate(-728 -592)"><g transform="translate(731 597)"><path class="a" d="M455.521,252.058a9.569,9.569,0,0,1-9.1-6.717.612.612,0,0,1,0-.369,9.518,9.518,0,0,1,18.193,0,.615.615,0,0,1,0,.37A9.568,9.568,0,0,1,455.521,252.058Zm0-12.6a8.4,8.4,0,0,0-7.889,5.7,8.31,8.31,0,0,0,15.776,0A8.411,8.411,0,0,0,455.521,239.459Z" transform="translate(-446.396 -238.255)"/></g><g transform="translate(735.448 599.223)"><path class="a" d="M454.947,249.549a4.679,4.679,0,1,1,4.677-4.677A4.682,4.682,0,0,1,454.947,249.549Zm0-8.154a3.475,3.475,0,1,0,3.474,3.477A3.479,3.479,0,0,0,454.947,241.4Z" transform="translate(-450.27 -240.191)"/></g></g><rect class="b" width="24" height="24"/></svg>